<svg width="488" height="430" viewBox="0 0 488 430" fill="none" xmlns="http://www.w3.org/2000/svg">
<path fill-rule="evenodd" clip-rule="evenodd" d="M279.536 0.382403C341.997 4.57503 388.028 52.3168 426.442 101.708C464.047 150.06 496.476 205.525 486.01 265.861C474.93 329.738 431.072 383.78 372.63 411.934C314.158 440.102 248.407 432.202 187.548 409.64C116.299 383.226 32.9157 352.892 14.5868 279.198C-3.93614 204.723 52.7229 135.822 105.605 80.1725C151.821 31.5378 212.569 -4.11276 279.536 0.382403Z" fill="#F3F5FE"/>
<path d="M235.442 361.311C249.307 361.311 260.548 350.067 260.548 336.196C260.548 322.326 249.307 311.081 235.442 311.081C221.577 311.081 210.337 322.326 210.337 336.196C210.337 350.067 221.577 361.311 235.442 361.311Z" fill="#6C63FF"/>
<path d="M385.424 359.9C399.469 355.681 414.401 351.28 425.54 341.249C435.493 332.285 442.213 318.597 438.09 305.154C433.974 291.738 421.649 282.792 408.923 278.343C401.705 275.82 394.154 274.42 386.605 273.32C378.4 272.124 370.158 271.145 361.92 270.202C328.563 266.386 295.081 264.054 261.474 263.208C244.891 262.79 228.311 262.8 211.725 263.041C196.914 263.256 181.314 263.251 167.573 256.953C156.888 252.056 147.19 243.146 144.212 231.438C140.775 217.922 147.115 204.158 156.208 194.37C161.002 189.21 166.604 184.868 172.383 180.875C178.652 176.543 185.14 172.518 191.769 168.761C204.825 161.364 218.474 155.069 232.575 149.941C239.531 147.411 246.59 145.228 253.711 143.214C259.724 141.514 265.755 139.811 271.566 137.494C282.8 133.015 293.485 125.428 296.342 112.989C299.049 101.201 294.484 88.4037 286.482 79.6462C277.224 69.5145 263.265 65.0731 249.883 64.3544C234.859 63.5477 220.18 67.3093 206.059 72.0832C190.997 77.175 176.261 83.0297 160.881 87.154C145.63 91.2398 130.084 94.1307 114.384 95.8004C106.698 96.6191 98.7798 97.5436 91.0484 96.9168C84.5687 96.3915 78.1222 94.4852 73.3468 89.8848C69.2521 85.9402 66.8129 80.5191 67.6515 74.7981C67.8038 73.759 69.3817 74.2008 69.2303 75.2335C68.2095 82.1976 72.9415 88.6147 78.7727 91.9019C85.512 95.701 93.7127 95.7062 101.216 95.2717C117.485 94.2887 133.643 91.9519 149.525 88.2855C165.13 84.72 180.177 79.6229 195.208 74.178C209.483 69.0067 224.077 63.9595 239.328 62.8395C252.561 61.8676 266.481 63.7961 278.009 70.7142C288.141 76.7942 295.591 86.9337 297.965 98.569C300.285 109.939 297.072 121.383 288.469 129.317C279.561 137.532 267.347 141.044 255.964 144.279C241.527 148.381 227.4 153.177 213.726 159.404C199.865 165.698 186.572 173.174 173.993 181.75C161.852 190.05 149.87 200.494 146.03 215.301C144.241 222.198 144.572 229.514 147.564 236.029C150.226 241.822 154.608 246.694 159.714 250.453C171.896 259.42 187.25 261.261 201.965 261.444C218.492 261.65 235.019 261.092 251.551 261.364C285.243 261.917 318.866 263.968 352.42 267.518C360.827 268.409 369.225 269.393 377.611 270.47C385.155 271.44 392.723 272.404 400.14 274.126C413.327 277.188 426.159 283.075 434.355 294.26C437.993 299.108 440.247 304.854 440.876 310.883C441.449 317.175 439.91 323.478 437.066 329.075C430.772 341.464 418.983 349.344 406.463 354.521C399.757 357.293 392.801 359.394 385.859 361.48C384.848 361.784 384.416 360.203 385.424 359.9L385.424 359.9Z" fill="#F77512"/>
<path d="M68.7088 88.049C75.9429 88.049 81.8073 82.1824 81.8073 74.9455C81.8073 67.7087 75.9429 61.842 68.7088 61.842C61.4746 61.842 55.6102 67.7087 55.6102 74.9455C55.6102 82.1824 61.4746 88.049 68.7088 88.049Z" fill="#F77512"/>
<path d="M159.58 112.891C166.814 112.891 172.678 107.024 172.678 99.7876C172.678 92.5507 166.814 86.6841 159.58 86.6841C152.346 86.6841 146.481 92.5507 146.481 99.7876C146.481 107.024 152.346 112.891 159.58 112.891Z" fill="#F77512"/>
<path d="M236.534 63.207C243.768 63.207 249.632 57.3403 249.632 50.1035C249.632 42.8666 243.768 37 236.534 37C229.299 37 223.435 42.8666 223.435 50.1035C223.435 57.3403 229.299 63.207 236.534 63.207Z" fill="#F77512"/>
<path d="M284.561 118.897C291.796 118.897 297.66 113.03 297.66 105.793C297.66 98.5564 291.796 92.6898 284.561 92.6898C277.327 92.6898 271.463 98.5564 271.463 105.793C271.463 113.03 277.327 118.897 284.561 118.897Z" fill="#F2F2F2"/>
<path d="M219.615 183.322C226.849 183.322 232.713 177.456 232.713 170.219C232.713 162.982 226.849 157.115 219.615 157.115C212.381 157.115 206.516 162.982 206.516 170.219C206.516 177.456 212.381 183.322 219.615 183.322Z" fill="#F77512"/>
<path d="M137.203 214.443C144.437 214.443 150.302 208.576 150.302 201.34C150.302 194.103 144.437 188.236 137.203 188.236C129.969 188.236 124.105 194.103 124.105 201.34C124.105 208.576 129.969 214.443 137.203 214.443Z" fill="#F77512"/>
<path d="M224.527 263.035C231.761 263.035 237.625 257.168 237.625 249.932C237.625 242.695 231.761 236.828 224.527 236.828C217.293 236.828 211.428 242.695 211.428 249.932C211.428 257.168 217.293 263.035 224.527 263.035Z" fill="#F2F2F2"/>
<path d="M318.399 290.334C325.633 290.334 331.498 284.467 331.498 277.231C331.498 269.994 325.633 264.127 318.399 264.127C311.165 264.127 305.301 269.994 305.301 277.231C305.301 284.467 311.165 290.334 318.399 290.334Z" fill="#F2F2F2"/>
<path d="M428.1 284.328C435.334 284.328 441.198 278.462 441.198 271.225C441.198 263.988 435.334 258.121 428.1 258.121C420.865 258.121 415.001 263.988 415.001 271.225C415.001 278.462 420.865 284.328 428.1 284.328Z" fill="#F77512"/>
<path d="M232.753 74.1284C193.516 74.4056 161.39 106.303 160.832 145.551C160.827 145.914 160.825 148.462 160.825 151.794C160.825 156.68 162.766 161.366 166.219 164.822C169.673 168.277 174.357 170.218 179.242 170.219H179.242C181.663 170.218 184.06 169.74 186.297 168.813C188.533 167.885 190.565 166.525 192.277 164.812C193.988 163.098 195.345 161.064 196.27 158.825C197.195 156.587 197.67 154.188 197.667 151.766C197.666 149.499 197.664 147.93 197.664 147.834C197.663 141.768 199.24 135.806 202.241 130.535C205.241 125.264 209.562 120.865 214.777 117.771C219.993 114.677 225.923 112.994 231.986 112.889C238.048 112.783 244.034 114.258 249.354 117.169C254.674 120.079 259.145 124.325 262.327 129.488C265.509 134.652 267.293 140.555 267.503 146.617C267.713 152.679 266.341 158.691 263.524 164.063C260.707 169.434 256.54 173.979 251.434 177.251L251.44 177.258C251.44 177.258 225.228 194.14 217.236 217.298L217.243 217.3C215.838 222.044 215.126 226.966 215.129 231.914C215.129 233.948 215.249 251.745 215.48 266.19C215.561 271.173 217.597 275.926 221.149 279.421C224.701 282.917 229.485 284.875 234.467 284.874H234.467C236.971 284.874 239.45 284.379 241.762 283.417C244.073 282.454 246.172 281.045 247.937 279.268C249.702 277.492 251.098 275.383 252.045 273.065C252.993 270.747 253.472 268.264 253.457 265.759C253.377 252.531 253.333 237.127 253.333 236.009C253.333 221.789 267.046 207.621 278.31 198.382C291.28 187.742 300.614 173.243 304.363 156.888C305.193 153.521 305.65 150.072 305.727 146.605C305.727 137.043 303.836 127.575 300.162 118.748C296.488 109.92 291.105 101.907 284.321 95.1702C277.538 88.4332 269.489 83.1056 260.639 79.4943C251.788 75.8829 242.311 74.0593 232.753 74.1284Z" fill="#6C63FF"/>
<path d="M405.505 362H55.4934C55.3624 362 55.2369 361.947 55.1444 361.853C55.0519 361.759 55 361.632 55 361.5C55 361.368 55.0519 361.241 55.1444 361.147C55.2369 361.053 55.3624 361 55.4934 361H405.505C405.636 361 405.762 361.053 405.855 361.146C405.948 361.24 406 361.367 406 361.5C406 361.633 405.948 361.76 405.855 361.854C405.762 361.947 405.636 362 405.505 362Z" fill="#3F3D56"/>
<path d="M342.99 186.05C352.032 186.05 359.363 178.717 359.363 169.671C359.363 160.625 352.032 153.291 342.99 153.291C333.947 153.291 326.617 160.625 326.617 169.671C326.617 178.717 333.947 186.05 342.99 186.05Z" fill="#2F2E41"/>
<path d="M312.734 354.83H306.043L302.86 329.012H312.735L312.734 354.83Z" fill="#A0616A"/>
<path d="M301.264 352.917H314.168V361.045H293.139C293.139 359.978 293.349 358.921 293.757 357.935C294.166 356.949 294.764 356.053 295.519 355.298C296.273 354.543 297.169 353.944 298.154 353.536C299.14 353.127 300.197 352.917 301.264 352.917Z" fill="#2F2E41"/>
<path d="M364.582 354.83H357.892L354.708 329.012H364.584L364.582 354.83Z" fill="#A0616A"/>
<path d="M353.112 352.917H366.016V361.045H344.987C344.987 359.978 345.197 358.921 345.606 357.935C346.014 356.949 346.612 356.053 347.367 355.298C348.121 354.543 349.017 353.944 350.003 353.536C350.988 353.127 352.045 352.917 353.112 352.917Z" fill="#2F2E41"/>
<path d="M340.501 186.146C347.905 186.146 353.906 180.142 353.906 172.736C353.906 165.33 347.905 159.326 340.501 159.326C333.098 159.326 327.097 165.33 327.097 172.736C327.097 180.142 333.098 186.146 340.501 186.146Z" fill="#FFB8B8"/>
<path d="M348.491 229.406L354.489 215.62C355.946 212.386 356.363 208.779 355.684 205.298C355.004 201.817 353.262 198.632 350.696 196.183C350.169 195.662 349.609 195.175 349.02 194.726C346.061 192.409 342.414 191.147 338.656 191.138C336.13 191.148 333.635 191.703 331.343 192.765C331.146 192.853 330.956 192.946 330.759 193.038C330.382 193.219 330.011 193.415 329.651 193.617C327.302 194.967 325.302 196.85 323.813 199.115C322.325 201.379 321.39 203.962 321.082 206.655L318.435 228.844C317.77 230.585 294.018 293.482 302.324 341.501C302.413 342.014 302.663 342.485 303.038 342.845C303.413 343.206 303.893 343.437 304.409 343.505L312.831 344.651C313.445 344.735 314.069 344.583 314.577 344.226C315.084 343.868 315.437 343.331 315.565 342.724L329.695 275.345C329.783 274.926 330.009 274.549 330.336 274.274C330.664 273.999 331.074 273.841 331.501 273.827C331.929 273.812 332.348 273.942 332.694 274.194C333.039 274.446 333.29 274.807 333.406 275.219L353.37 346.076C353.513 346.591 353.82 347.045 354.245 347.368C354.669 347.692 355.189 347.867 355.723 347.867C355.882 347.866 356.041 347.851 356.198 347.823L366.485 345.841C367.083 345.73 367.618 345.398 367.984 344.912C368.351 344.427 368.523 343.821 368.466 343.215C366.955 326.35 358.921 241.871 348.491 229.406Z" fill="black"/>
<path d="M288.407 183.895C288.314 184.693 288.397 185.501 288.65 186.262C288.903 187.024 289.32 187.721 289.871 188.304C290.422 188.887 291.095 189.343 291.841 189.638C292.587 189.933 293.389 190.061 294.189 190.012L301.682 208.025L307.35 199.62L299.366 183.803C299.195 182.463 298.539 181.231 297.522 180.343C296.505 179.454 295.197 178.969 293.846 178.98C292.495 178.992 291.195 179.498 290.193 180.404C289.191 181.31 288.555 182.552 288.407 183.895L288.407 183.895Z" fill="#FFB8B8"/>
<path d="M339.758 247.544C340.555 247.448 341.321 247.18 342.003 246.756C342.684 246.333 343.265 245.765 343.703 245.093C344.141 244.42 344.427 243.66 344.54 242.866C344.653 242.071 344.591 241.261 344.357 240.493L360.122 229.007L350.631 225.451L337.115 236.904C335.852 237.382 334.808 238.308 334.181 239.504C333.554 240.701 333.387 242.087 333.713 243.398C334.039 244.71 334.834 245.856 335.948 246.62C337.062 247.384 338.418 247.713 339.758 247.544Z" fill="#FFB8B8"/>
<path d="M314.059 220.034C313.454 220.034 312.851 219.974 312.259 219.857C310.825 219.584 309.48 218.962 308.343 218.047C307.206 217.131 306.311 215.95 305.738 214.607L295.24 201.802C295.018 201.531 294.857 201.216 294.767 200.878C294.676 200.539 294.659 200.186 294.717 199.84C294.774 199.495 294.905 199.166 295.1 198.875C295.294 198.584 295.549 198.339 295.847 198.154L303.315 193.529C303.591 193.359 303.898 193.244 304.218 193.193C304.538 193.141 304.865 193.153 305.181 193.229C305.496 193.305 305.794 193.442 306.056 193.633C306.318 193.824 306.539 194.066 306.707 194.343L314.106 206.537L328.275 196.061C329.403 195.47 330.707 195.304 331.947 195.594C333.187 195.884 334.282 196.611 335.031 197.642C335.78 198.673 336.133 199.939 336.026 201.208C335.919 202.478 335.359 203.667 334.448 204.558L320.306 217.463C318.644 219.111 316.399 220.035 314.059 220.034Z" fill="black"/>
<path d="M352.345 239.292C352.326 239.292 352.306 239.292 352.287 239.292C351.943 239.283 351.604 239.203 351.293 239.055C350.981 238.907 350.704 238.696 350.48 238.434L343.84 230.685C343.614 230.421 343.446 230.112 343.348 229.779C343.25 229.445 343.224 229.095 343.272 228.75C343.319 228.406 343.439 228.076 343.624 227.781C343.808 227.487 344.053 227.235 344.342 227.042L356.776 218.75L345.512 205.203C344.857 204.11 344.616 202.818 344.835 201.562C345.053 200.307 345.716 199.172 346.702 198.365C347.688 197.558 348.931 197.133 350.204 197.167C351.477 197.201 352.696 197.693 353.637 198.551L367.327 211.935C368.404 212.919 369.227 214.151 369.724 215.524C370.221 216.896 370.377 218.369 370.18 219.815C369.983 221.262 369.438 222.639 368.591 223.828C367.745 225.018 366.623 225.984 365.321 226.644L354.132 238.521C353.902 238.764 353.625 238.958 353.318 239.091C353.011 239.224 352.679 239.292 352.345 239.292Z" fill="black"/>
<path d="M337.093 210.738C336.987 210.738 336.88 210.731 336.774 210.718C336.312 210.662 335.875 210.474 335.517 210.177C335.158 209.88 334.891 209.486 334.749 209.042L329.76 193.739C329.635 193.352 329.654 192.933 329.814 192.559C329.974 192.185 330.264 191.882 330.63 191.705L330.792 191.629C330.938 191.559 331.084 191.49 331.232 191.424C333.559 190.344 336.092 189.781 338.656 189.773C341.986 189.78 345.241 190.758 348.023 192.589C348.395 192.837 348.656 193.222 348.748 193.661C348.84 194.099 348.756 194.556 348.514 194.934L339.154 209.603C338.935 209.951 338.631 210.238 338.27 210.437C337.91 210.635 337.505 210.739 337.093 210.738Z" fill="#A8B8CE"/>
<path d="M355.898 162.358C358.857 162.358 361.256 159.959 361.256 156.998C361.256 154.038 358.857 151.639 355.898 151.639C352.939 151.639 350.541 154.038 350.541 156.998C350.541 159.959 352.939 162.358 355.898 162.358Z" fill="#2F2E41"/>
<path d="M337.532 151.107C333.769 151.107 330.159 152.603 327.498 155.265C324.837 157.927 323.342 161.538 323.342 165.303V171.308H330.726L334.257 165.303L335.317 171.308H357.726L351.722 165.303C351.722 161.538 350.227 157.927 347.566 155.265C344.905 152.603 341.295 151.107 337.532 151.107Z" fill="#2F2E41"/>
<path d="M358.652 153.327C359.245 151.474 360.471 149.889 362.116 148.851C363.761 147.813 365.72 147.388 367.647 147.651C371.061 148.222 373.761 150.968 375.369 154.035C376.978 157.101 377.72 160.533 378.802 163.823C379.883 167.113 381.417 170.42 384.147 172.55C386.876 174.679 391.065 175.257 393.746 173.066C393.44 175.349 392.424 177.478 390.842 179.152C389.26 180.826 387.192 181.959 384.93 182.393C382.669 182.826 380.329 182.538 378.24 181.568C376.152 180.598 374.421 178.995 373.293 176.987C371.878 174.469 371.513 171.518 371.093 168.66C370.674 165.803 370.129 162.846 368.44 160.503C366.751 158.161 363.589 156.631 360.906 157.698L358.652 153.327Z" fill="#2F2E41"/>
<path d="M184.442 161.504C179.557 161.503 174.873 159.562 171.419 156.107C167.966 152.652 166.025 147.966 166.025 143.079C166.025 139.747 166.027 137.199 166.032 136.837C166.187 125.422 169.061 114.209 174.415 104.128C165.619 116.174 160.782 130.656 160.575 145.572C160.569 145.935 160.567 148.483 160.567 151.815C160.568 156.701 162.508 161.387 165.962 164.843C169.415 168.298 174.1 170.239 178.984 170.24C182.998 170.238 186.901 168.926 190.101 166.503C193.301 164.08 195.624 160.678 196.715 156.814C193.343 159.839 188.971 161.509 184.442 161.504Z" fill="#3F3D56"/>
<path d="M234.001 112.951C239.648 113.22 245.145 114.857 250.02 117.72C254.895 120.583 259.002 124.587 261.99 129.388C264.977 134.189 266.755 139.644 267.171 145.284C267.587 150.924 266.629 156.581 264.378 161.768C267.634 157.943 270.027 153.461 271.394 148.628C272.761 143.794 273.07 138.722 272.3 133.758C271.53 128.794 269.699 124.054 266.932 119.862C264.165 115.67 260.527 112.125 256.266 109.467C252.005 106.809 247.221 105.101 242.24 104.46C237.26 103.819 232.2 104.261 227.405 105.753C222.61 107.246 218.194 109.756 214.456 113.111C210.719 116.466 207.749 120.588 205.748 125.196C209.206 121.127 213.552 117.907 218.45 115.783C223.349 113.66 228.669 112.691 234.001 112.951Z" fill="#3F3D56"/>
<path d="M239.667 276.159C234.685 276.161 229.901 274.202 226.349 270.707C222.797 267.211 220.761 262.459 220.68 257.475C220.449 243.03 220.329 225.234 220.329 223.2C220.326 218.252 221.038 213.329 222.443 208.585L222.437 208.583C223.266 206.202 224.269 203.884 225.435 201.649C221.854 206.423 219.004 211.704 216.979 217.319L216.986 217.321C215.58 222.065 214.868 226.987 214.871 231.935C214.871 233.969 214.991 251.766 215.222 266.21C215.303 271.194 217.339 275.947 220.891 279.442C224.443 282.938 229.227 284.896 234.21 284.895C238.318 284.894 242.315 283.561 245.602 281.095C248.889 278.63 251.288 275.164 252.439 271.219C248.948 274.404 244.392 276.166 239.667 276.159Z" fill="#3F3D56"/>
<path d="M69.0625 355.079L75.7532 355.078L78.9366 329.26L69.0609 329.261L69.0625 355.079Z" fill="#FFB8B8"/>
<path d="M88.6577 361.293L67.6287 361.294L67.6284 353.166L80.5325 353.166C82.6874 353.166 84.754 354.022 86.2777 355.546C87.8015 357.07 88.6576 359.138 88.6577 361.293L88.6577 361.293Z" fill="#2F2E41"/>
<path d="M45.0486 355.079L51.7392 355.078L54.9227 329.26L45.0469 329.261L45.0486 355.079Z" fill="#FFB8B8"/>
<path d="M64.6437 361.293L43.6148 361.294L43.6144 353.166L56.5185 353.166C58.6734 353.166 60.74 354.022 62.2638 355.546C63.7875 357.07 64.6436 359.138 64.6437 361.293L64.6437 361.293Z" fill="#2F2E41"/>
<path d="M50.8956 347.138L44.3599 346.795C44.0229 346.777 43.6928 346.692 43.3886 346.546C43.0845 346.4 42.8124 346.195 42.5881 345.942C42.3638 345.69 42.1918 345.396 42.082 345.077C41.9722 344.757 41.9268 344.42 41.9484 344.083L49.7599 257.564L85.7323 267.274L89.198 266.328L78.3599 342.921C78.2676 343.497 77.9816 344.024 77.5491 344.416C77.1167 344.808 76.5636 345.04 75.9814 345.075L68.9361 345.403C68.5838 345.422 68.2313 345.369 67.9008 345.245C67.5703 345.121 67.2691 344.93 67.0162 344.684C66.7632 344.438 66.5641 344.142 66.4312 343.815C66.2984 343.488 66.2349 343.137 66.2446 342.785L67.5211 296.815C67.5271 296.603 67.4533 296.395 67.3142 296.235C67.1751 296.074 66.9809 295.971 66.7697 295.946C66.5586 295.922 66.3459 295.977 66.1735 296.101C66.0011 296.226 65.8816 296.41 65.8384 296.619L53.5275 345.108C53.4113 345.684 53.0992 346.201 52.6445 346.572C52.1897 346.943 51.6205 347.144 51.0338 347.142C50.988 347.142 50.9419 347.141 50.8956 347.138Z" fill="black"/>
<path d="M70.2637 186.773C77.667 186.773 83.6684 180.769 83.6684 173.363C83.6684 165.957 77.667 159.953 70.2637 159.953C62.8605 159.953 56.859 165.957 56.859 173.363C56.859 180.769 62.8605 186.773 70.2637 186.773Z" fill="#FFB8B8"/>
<path d="M47.9459 212.76L49.4197 244.573L49.9526 256.147C49.9738 256.651 50.1448 257.137 50.4437 257.543C50.7426 257.949 51.1558 258.257 51.6304 258.427L86.1974 270.953C86.4767 271.057 86.7725 271.109 87.0704 271.106C87.4109 271.108 87.7482 271.041 88.0622 270.909C88.3763 270.778 88.6605 270.584 88.8981 270.34C89.1357 270.096 89.3217 269.807 89.445 269.489C89.5683 269.172 89.6263 268.832 89.6157 268.492L88.1986 211.291C88.1055 206.598 86.3786 202.085 83.3156 198.529C80.2527 194.973 76.0455 192.598 71.4195 191.812C71.0852 191.761 70.745 191.71 70.4048 191.665C67.5363 191.309 64.6246 191.586 61.8746 192.476C59.1246 193.367 56.6031 194.849 54.4874 196.82C52.2967 198.835 50.5753 201.308 49.4449 204.062C48.3146 206.817 47.8028 209.786 47.9458 212.76L47.9459 212.76Z" fill="#A8B8CE"/>
<path d="M102.71 264.605C101.892 264.352 101.145 263.91 100.529 263.316C99.912 262.722 99.4426 261.992 99.158 261.185C98.8733 260.377 98.7813 259.514 98.8893 258.665C98.9973 257.815 99.3022 257.003 99.7799 256.292L88.0578 240.699L98.1733 240.073L107.754 254.976C108.78 255.769 109.493 256.899 109.77 258.166C110.047 259.433 109.868 260.757 109.267 261.906C108.665 263.054 107.678 263.955 106.479 264.448C105.28 264.942 103.946 264.997 102.71 264.605H102.71Z" fill="#FFB8B8"/>
<path d="M94.4682 253.47C94.1576 253.344 93.8752 253.158 93.6371 252.922C93.3991 252.685 93.2102 252.405 93.0814 252.095L75.4211 210.003C75.0746 209.179 74.8938 208.295 74.8891 207.401C74.8844 206.507 75.0559 205.62 75.3937 204.793C75.7315 203.965 76.2291 203.212 76.8579 202.577C77.4868 201.941 78.2346 201.436 79.0587 201.09C79.8828 200.744 80.7669 200.564 81.6606 200.56C82.5544 200.556 83.4401 200.728 84.2673 201.067C85.0944 201.405 85.8467 201.904 86.4813 202.533C87.1158 203.163 87.6201 203.912 87.9654 204.736L105.626 246.829C105.887 247.453 105.889 248.155 105.634 248.781C105.378 249.407 104.884 249.906 104.261 250.169L96.4206 253.461C96.112 253.591 95.7805 253.66 95.4453 253.661C95.1102 253.663 94.7781 253.598 94.4682 253.47L94.4682 253.47Z" fill="#A8B8CE"/>
<path d="M65.954 251.985L82.9162 219.495C83.2433 218.87 83.8048 218.401 84.4775 218.189C85.1503 217.978 85.8793 218.043 86.5046 218.368L111.125 231.232C111.75 231.559 112.219 232.121 112.43 232.794C112.641 233.467 112.577 234.196 112.251 234.821L95.2892 267.312C94.9621 267.937 94.4006 268.406 93.7279 268.618C93.0551 268.829 92.3261 268.764 91.7008 268.439L67.0802 255.575C66.4556 255.248 65.9862 254.686 65.7751 254.013C65.564 253.34 65.6283 252.611 65.954 251.985Z" fill="#3F3D56"/>
<path d="M77.3295 237.141C77.0279 236.34 76.5433 235.62 75.9142 235.039C75.2852 234.458 74.5291 234.033 73.7064 233.796C72.8837 233.56 72.0171 233.519 71.1758 233.677C70.3345 233.835 69.5417 234.187 68.8607 234.706L52.6085 223.921L52.5809 234.059L68.0185 242.747C68.8707 243.724 70.0396 244.37 71.3204 244.572C72.6011 244.773 73.9119 244.517 75.0227 243.848C76.1335 243.18 76.9735 242.141 77.3953 240.914C77.8171 239.688 77.7938 238.352 77.3295 237.141Z" fill="#FFB8B8"/>
<path d="M56.7811 239.421L43.4988 228.896C42.0619 228.413 40.7636 227.589 39.7152 226.494C38.6668 225.399 37.8998 224.066 37.4799 222.609C37.06 221.152 36.9998 219.615 37.3044 218.129C37.6091 216.644 38.2695 215.255 39.229 214.081L51.289 198.27C52.1271 197.245 53.3057 196.557 54.6095 196.33C55.9132 196.103 57.255 196.353 58.3895 197.035C59.5241 197.716 60.3756 198.783 60.7884 200.041C61.2012 201.299 61.1478 202.663 60.6378 203.885L51.0957 219.5L65.1187 226.153C65.4448 226.308 65.7344 226.53 65.9683 226.805C66.2022 227.08 66.3751 227.402 66.4756 227.748C66.5761 228.095 66.6019 228.459 66.5512 228.817C66.5006 229.174 66.3748 229.517 66.182 229.822L60.5214 238.784C60.33 239.086 60.0773 239.345 59.7796 239.544C59.4818 239.742 59.1457 239.876 58.7931 239.936C58.7791 239.939 58.7649 239.941 58.7509 239.943C58.4043 239.996 58.0507 239.976 57.7119 239.886C57.3731 239.797 57.0563 239.638 56.7811 239.421Z" fill="#A8B8CE"/>
<path d="M60.1348 182.342C60.0773 182.174 60.059 181.995 60.0815 181.818C60.1039 181.642 60.1664 181.473 60.2642 181.324C60.362 181.176 60.4925 181.052 60.6457 180.961C60.7988 180.871 60.9707 180.817 61.1479 180.803C61.511 180.823 61.8663 180.916 62.1924 181.077C62.5184 181.238 62.8085 181.463 63.0451 181.74C63.5302 182.299 64.095 182.784 64.7213 183.179C65.3697 183.506 66.2492 183.46 66.6188 182.836C66.966 182.251 66.7281 181.467 66.518 180.787C65.9832 179.057 65.684 177.263 65.6284 175.453C65.5679 173.433 65.8528 171.324 66.9708 169.748C68.4138 167.715 70.9939 166.943 73.4357 166.999C75.8775 167.055 78.2797 167.809 80.6984 168.285C81.5334 168.45 82.5149 168.534 83.0733 167.887C83.6672 167.198 83.4491 166.084 83.1965 165.155C82.541 162.743 81.8457 160.249 80.3229 158.301C78.6763 156.277 76.3242 154.953 73.7404 154.594C71.2598 154.287 68.7416 154.573 66.393 155.429C62.5666 156.635 59.1995 158.982 56.7422 162.154C54.2091 165.528 53.1146 169.769 53.6979 173.948C54.2677 177.587 56.1957 180.876 59.0933 183.15L60.1348 182.342Z" fill="#2F2E41"/>
<path d="M229.911 355.185C226.344 353.632 223.188 351.27 220.69 348.286C218.192 345.303 216.422 341.78 215.519 337.995C214.615 334.21 214.603 330.267 215.484 326.476C216.365 322.686 218.114 319.152 220.594 316.154C217.719 318.254 215.323 320.942 213.566 324.039C211.808 327.136 210.73 330.572 210.401 334.118C210.072 337.664 210.501 341.24 211.659 344.607C212.818 347.975 214.679 351.057 217.119 353.651C219.559 356.244 222.523 358.288 225.813 359.648C229.103 361.007 232.645 361.651 236.203 361.537C239.762 361.423 243.255 360.553 246.451 358.985C249.647 357.417 252.474 355.186 254.743 352.442C251.204 355.029 247.049 356.644 242.692 357.126C238.336 357.607 233.929 356.938 229.911 355.185Z" fill="#3F3D56"/>
</svg>
