<svg width="255" height="111" viewBox="0 0 255 111" fill="none" xmlns="http://www.w3.org/2000/svg">
<g clip-path="url(#clip0)">
<path d="M125.169 64.8484H95.7971L95.4857 55.843C95.4723 55.4527 95.5438 55.064 95.6954 54.7038C95.8469 54.3436 96.075 54.0205 96.3638 53.7566C96.6526 53.4928 96.9953 53.2944 97.3684 53.1753C97.7414 53.0562 98.1359 53.019 98.5247 53.0665L115.617 55.1536H115.619C118.153 55.1604 120.581 56.1685 122.371 57.9572C124.161 59.7458 125.167 62.169 125.169 64.6959V64.8484Z" fill="#D8E7F8"/>
<path d="M105.529 43.6822L98.1478 45.1155C98.0128 45.1418 97.8729 45.1134 97.7588 45.0368C97.6447 44.9601 97.5659 44.8414 97.5396 44.7068C97.5133 44.5721 97.5417 44.4326 97.6186 44.3189C97.6955 44.2051 97.8145 44.1265 97.9495 44.1003L105.331 42.6669C105.466 42.6407 105.606 42.669 105.72 42.7457C105.834 42.8224 105.913 42.9411 105.939 43.0757C105.965 43.2103 105.937 43.3499 105.86 43.4636C105.783 43.5773 105.664 43.656 105.529 43.6822Z" fill="white"/>
<path d="M104.094 45.8049L100.276 46.5462C100.141 46.5725 100.002 46.5441 99.8874 46.4675C99.7734 46.3908 99.6945 46.2721 99.6683 46.1375C99.642 46.0028 99.6704 45.8633 99.7473 45.7496C99.8241 45.6358 99.9432 45.5572 100.078 45.531L103.896 44.7896C103.963 44.7766 104.032 44.7769 104.098 44.7904C104.165 44.8039 104.229 44.8304 104.285 44.8684C104.342 44.9063 104.39 44.955 104.428 45.0116C104.465 45.0682 104.491 45.1317 104.504 45.1984C104.517 45.265 104.517 45.3336 104.503 45.4002C104.49 45.4667 104.463 45.5299 104.425 45.5863C104.387 45.6426 104.338 45.6909 104.282 45.7284C104.225 45.7659 104.161 45.7919 104.094 45.8049Z" fill="white"/>
<path d="M163.344 38.5388C163.202 38.081 162.961 37.6599 162.638 37.3051C162.315 36.9503 161.918 36.6704 161.474 36.4853C161.031 36.3001 160.553 36.2141 160.072 36.2333C159.592 36.2525 159.122 36.3765 158.695 36.5965L130.512 26.5133L129.271 33.5341L157.364 41.238C157.782 41.9287 158.44 42.4425 159.213 42.682C159.985 42.9214 160.819 42.8699 161.556 42.5372C162.294 42.2045 162.883 41.6137 163.212 40.8768C163.542 40.1399 163.589 39.308 163.344 38.5388Z" fill="#FFB8B8"/>
<path opacity="0.2" d="M163.344 38.5388C163.202 38.081 162.961 37.6599 162.638 37.3051C162.315 36.9503 161.918 36.6704 161.474 36.4853C161.031 36.3001 160.553 36.2141 160.072 36.2333C159.592 36.2525 159.122 36.3765 158.695 36.5965L130.512 26.5133L129.271 33.5341L157.364 41.238C157.782 41.9287 158.44 42.4425 159.213 42.682C159.985 42.9214 160.819 42.8699 161.556 42.5372C162.294 42.2045 162.883 41.6137 163.212 40.8768C163.542 40.1399 163.589 39.308 163.344 38.5388Z" fill="black"/>
<path d="M135.514 27.7926L132.853 34.7259C132.777 34.9231 132.66 35.1018 132.509 35.2497C132.357 35.3977 132.176 35.5113 131.977 35.583C131.778 35.6547 131.565 35.6828 131.354 35.6652C131.143 35.6477 130.938 35.585 130.754 35.4814L124.285 31.8512C123.276 31.459 122.463 30.6836 122.026 29.6949C121.588 28.7062 121.562 27.5848 121.952 26.5767C122.342 25.5686 123.118 24.756 124.108 24.317C125.098 23.878 126.223 23.8485 127.235 24.2349L134.457 25.8323C134.664 25.8781 134.859 25.9678 135.027 26.0953C135.196 26.2228 135.336 26.385 135.436 26.5711C135.536 26.7571 135.595 26.9625 135.609 27.1733C135.622 27.3841 135.59 27.5954 135.514 27.7926Z" fill="#F77512"/>
<path d="M165.563 44.9585L155.464 49.5359L156.79 54.5133C159.35 64.125 160.03 74.1386 158.791 84.0067L166.175 85.5444L172.295 69.9814L170.153 52.2823L165.563 44.9585Z" fill="#F77512"/>
<path d="M185.377 67.9979C178.742 67.9979 173.335 72.8078 173.073 78.831H197.682C197.42 72.8078 192.012 67.9979 185.377 67.9979Z" fill="#3F3D56"/>
<path d="M180.212 69.0359C179.867 41.8469 164.339 44.3482 164.339 44.3482C164.339 44.3482 164.629 52.8112 164.769 53.0744C174.664 71.7438 158.333 93.631 137.546 89.6045C137.154 89.5285 136.777 89.4515 136.416 89.3734C133.782 88.8251 131.457 87.2968 129.913 85.0994C128.368 82.902 127.722 80.2006 128.104 77.5447C130.151 61.1469 119.967 61.437 119.967 61.437H105.074L97.3399 54.496C97.0669 54.2509 96.7379 54.0764 96.3816 53.9875C96.0253 53.8986 95.6525 53.8981 95.296 53.986C94.9395 54.074 94.61 54.2477 94.3363 54.4919C94.0627 54.7362 93.8532 55.0436 93.7262 55.3873L92.7312 58.0803C92.7312 58.0803 78.0425 59.6061 79.2666 73.9485H83.8078C83.7968 74.356 83.8132 74.7638 83.8568 75.1691L117.748 74.8943C119.735 74.8782 121.488 76.4835 121.497 78.4646C121.499 78.9469 121.403 79.4247 121.216 79.8693C121.028 80.3139 120.753 80.7163 120.406 81.0524C120.059 81.3884 119.648 81.6512 119.197 81.8251C118.745 81.9989 118.264 82.0803 117.78 82.0642L112.316 81.8826C110.633 89.3589 114.764 94.394 119.316 97.56C123.602 100.498 128.688 102.055 133.888 102.023H148.732C168.011 102.023 171.377 85.8496 171.377 85.8496C181.476 81.5774 180.212 69.0359 180.212 69.0359Z" fill="#3F3D56"/>
<path d="M184.459 110.872C193.966 110.872 201.673 103.187 201.673 93.7074C201.673 84.2274 193.966 76.5423 184.459 76.5423C174.953 76.5423 167.246 84.2274 167.246 93.7074C167.246 103.187 174.953 110.872 184.459 110.872Z" fill="#3F3D56"/>
<path d="M184.459 97.9145C186.789 97.9145 188.678 96.0309 188.678 93.7074C188.678 91.3839 186.789 89.5003 184.459 89.5003C182.129 89.5003 180.24 91.3839 180.24 93.7074C180.24 96.0309 182.129 97.9145 184.459 97.9145Z" fill="white"/>
<path d="M97.5508 110.872C108.494 110.872 117.365 102.026 117.365 91.1135C117.365 80.201 108.494 71.3546 97.5508 71.3546C86.6076 71.3546 77.7363 80.201 77.7363 91.1135C77.7363 102.026 86.6076 110.872 97.5508 110.872Z" fill="#3F3D56"/>
<path d="M97.5508 95.9564C100.233 95.9564 102.407 93.7882 102.407 91.1135C102.407 88.4389 100.233 86.2707 97.5508 86.2707C94.8687 86.2707 92.6943 88.4389 92.6943 91.1135C92.6943 93.7882 94.8687 95.9564 97.5508 95.9564Z" fill="white"/>
<path d="M155.493 50.8884L151.86 41.0472C151.67 40.5343 151.584 39.9892 151.606 39.4431C151.628 38.897 151.757 38.3605 151.987 37.8643C152.217 37.3681 152.542 36.9219 152.945 36.5512C153.348 36.1805 153.82 35.8925 154.334 35.7037L164.751 31.8797C165.656 31.5473 166.618 31.396 167.581 31.4344C168.545 31.4727 169.492 31.6999 170.367 32.1031C171.243 32.5062 172.03 33.0774 172.684 33.784C173.339 34.4905 173.847 35.3187 174.18 36.2212C174.48 37.0312 174.634 37.888 174.633 38.7517C174.629 39.8483 174.38 40.9302 173.905 41.9189C173.429 42.9076 172.738 43.7781 171.883 44.4673C171.265 44.9616 170.57 45.3521 169.826 45.6235L155.493 50.8884Z" fill="#3F3D56"/>
<path d="M174.48 38.7516C174.479 39.8259 174.237 40.8863 173.771 41.8548C173.305 42.8233 172.627 43.6754 171.787 44.3482C170.499 44.0093 169.3 43.3946 168.274 42.5469C167.247 41.6992 166.419 40.6388 165.845 39.4395C165.271 38.2401 164.966 36.9305 164.951 35.6018C164.937 34.273 165.212 32.957 165.759 31.7452C166.808 31.5176 167.896 31.5273 168.941 31.7736C169.987 32.0199 170.963 32.4965 171.8 33.1685C172.636 33.8405 173.311 34.6907 173.775 35.6569C174.239 36.623 174.48 37.6805 174.48 38.7516Z" fill="#F77512"/>
<path d="M81.8677 75.932C84.2338 75.932 86.1519 73.6094 86.1519 70.7443C86.1519 67.8792 84.2338 65.5566 81.8677 65.5566C79.5016 65.5566 77.5835 67.8792 77.5835 70.7443C77.5835 73.6094 79.5016 75.932 81.8677 75.932Z" fill="#F77512"/>
<path d="M138.499 89.1074H142.251L144.036 79.4044L138.499 79.4047L138.499 89.1074Z" fill="#FFB8B8"/>
<path d="M137.542 87.8861L144.931 87.8857H144.931C145.549 87.8857 146.162 88.0072 146.733 88.2431C147.304 88.4791 147.823 88.8249 148.26 89.2609C148.698 89.6969 149.044 90.2145 149.281 90.7842C149.518 91.3538 149.639 91.9644 149.639 92.581V92.7335L137.542 92.734L137.542 87.8861Z" fill="#2F2E41"/>
<path d="M142.854 85.125C142.81 85.125 142.766 85.1229 142.722 85.1187L137.53 84.7417C137.32 84.7223 137.118 84.6551 136.938 84.5452C136.758 84.4353 136.606 84.2857 136.493 84.1079C136.381 83.9301 136.311 83.7289 136.288 83.5198C136.266 83.3107 136.292 83.0993 136.365 82.9019L143.313 67.3344C143.363 67.1956 143.383 67.0481 143.373 66.9011C143.362 66.7541 143.322 66.6108 143.253 66.4803C143.185 66.3482 143.089 66.2321 142.972 66.1396C142.856 66.047 142.721 65.9801 142.576 65.9433C139.309 65.0916 130.926 62.8238 123.669 60.1703C120.56 59.0334 118.602 57.3905 117.849 55.2872C116.856 52.5143 118.325 49.9854 118.387 49.8793L118.437 49.7962L125.265 50.4151L132.668 51.043L148.891 59.718C150.251 60.451 151.283 61.6678 151.783 63.1259C152.283 64.584 152.214 66.1765 151.59 67.5862L144.111 84.3111C144.002 84.5533 143.826 84.7591 143.603 84.9035C143.38 85.048 143.12 85.1249 142.854 85.125Z" fill="#2F2E41"/>
<path d="M126.453 19.6159C130.604 19.6159 133.969 16.2603 133.969 12.1209C133.969 7.98155 130.604 4.62593 126.453 4.62593C122.302 4.62593 118.937 7.98155 118.937 12.1209C118.937 16.2603 122.302 19.6159 126.453 19.6159Z" fill="#FFB8B8"/>
<path d="M136.357 90.0229H140.109L141.894 80.3198L136.356 80.3201L136.357 90.0229Z" fill="#FFB8B8"/>
<path d="M135.4 88.8015L142.789 88.8012H142.789C143.407 88.8012 144.019 88.9226 144.591 89.1586C145.162 89.3945 145.681 89.7404 146.118 90.1764C146.555 90.6124 146.902 91.13 147.139 91.6996C147.376 92.2693 147.497 92.8798 147.497 93.4964V93.649L135.4 93.6495L135.4 88.8015Z" fill="#2F2E41"/>
<path d="M140.712 86.0405C140.668 86.0405 140.624 86.0384 140.58 86.0342L135.388 85.6572C135.178 85.6378 134.976 85.5706 134.796 85.4607C134.616 85.3508 134.464 85.2012 134.351 85.0234C134.239 84.8456 134.168 84.6444 134.146 84.4353C134.124 84.2262 134.15 84.0148 134.222 83.8174L141.171 68.2499C141.221 68.1111 141.241 67.9636 141.231 67.8166C141.22 67.6696 141.18 67.5263 141.111 67.3958C141.043 67.2637 140.947 67.1476 140.83 67.0551C140.714 66.9625 140.579 66.8956 140.434 66.8588C137.167 66.0071 128.784 63.7393 121.527 61.0858C118.418 59.9489 116.459 58.306 115.707 56.2027C114.714 53.4298 116.182 50.9009 116.245 50.7948L116.295 50.7117L123.123 51.3306L130.526 51.9585L146.749 60.6335C148.108 61.3665 149.141 62.5833 149.641 64.0414C150.141 65.4995 150.072 67.092 149.448 68.5017L141.968 85.2266C141.86 85.4688 141.684 85.6746 141.461 85.819C141.238 85.9635 140.978 86.0404 140.712 86.0405Z" fill="#2F2E41"/>
<path d="M128.771 23.8659L120.814 21.1194C120.814 21.1194 115.82 24.9461 118.219 34.4391C119.472 39.3379 119.107 44.5088 117.179 49.1844C116.946 49.7629 116.679 50.3266 116.377 50.8723C116.377 50.8723 125.252 61.5528 133.514 53.6187L130.301 38.2083C130.301 38.2083 135.35 27.9855 128.771 23.8659Z" fill="#F77512"/>
<path d="M127.386 19.8708C126.316 18.2741 125.472 16.0601 126.65 14.5409C127.812 13.0413 130.105 13.2623 131.886 12.5987C134.366 11.6745 135.804 8.7692 135.356 6.16733C134.907 3.56545 132.813 1.40858 130.317 0.526054C127.822 -0.35647 125.008 -0.0694527 122.565 0.946828C119.557 2.19788 116.977 4.61796 115.895 7.68356C114.813 10.7492 115.391 14.43 117.636 16.7863C120.042 19.3125 123.819 19.9857 127.313 19.9449" fill="#2F2E41"/>
<path d="M120.394 6.25082C119.046 7.34508 116.99 6.85905 115.543 5.89871C114.096 4.93836 112.922 3.57089 111.356 2.81794C108.596 1.49052 105.259 2.37295 102.573 3.8433C99.887 5.31365 97.5058 7.34498 94.6684 8.49883C91.831 9.65268 88.2103 9.70971 86.0618 7.53099C85.533 9.05855 85.4898 10.7116 85.938 12.2646C86.3862 13.8175 87.3039 15.1948 88.566 16.2084C89.8281 17.222 91.3731 17.8227 92.9902 17.9284C94.6072 18.0341 96.2176 17.6397 97.6016 16.7991C100.711 14.9106 102.428 10.9511 105.915 9.90881C107.844 9.33204 109.916 9.79658 111.867 10.2997C113.817 10.8029 115.85 11.3466 117.818 10.9182C119.786 10.4899 121.627 8.72623 121.377 6.73306L120.394 6.25082Z" fill="#2F2E41"/>
<path d="M162.971 38.2335C162.773 37.7967 162.481 37.4085 162.117 37.0961C161.752 36.7838 161.324 36.555 160.861 36.4257C160.398 36.2965 159.912 36.27 159.438 36.3482C158.964 36.4264 158.513 36.6073 158.116 36.8781L128.901 30.3395L128.538 37.4594L157.37 41.6478C157.87 42.2819 158.587 42.7108 159.383 42.8534C160.18 42.9959 161.001 42.8422 161.691 42.4214C162.381 42.0005 162.893 41.3417 163.129 40.5699C163.365 39.798 163.308 38.9667 162.971 38.2335Z" fill="#FFB8B8"/>
<path d="M134.024 30.9936L132.24 38.2013C132.19 38.4064 132.095 38.5981 131.963 38.7635C131.832 38.9289 131.666 39.064 131.477 39.1597C131.288 39.2554 131.081 39.3093 130.869 39.3179C130.657 39.3264 130.446 39.2894 130.25 39.2093L123.383 36.4026C122.331 36.1384 121.428 35.469 120.871 34.5414C120.314 33.6139 120.149 32.5038 120.412 31.4549C120.674 30.4059 121.344 29.5038 122.273 28.9464C123.202 28.389 124.315 28.2219 125.367 28.4817L132.732 29.1782C132.943 29.1982 133.147 29.2633 133.33 29.3691C133.514 29.4748 133.672 29.6187 133.795 29.791C133.917 29.9633 134.001 30.1599 134.041 30.3674C134.08 30.5749 134.074 30.7885 134.024 30.9936V30.9936Z" fill="#F77512"/>
<path d="M159.595 43.8905C160.779 43.8905 161.738 42.9341 161.738 41.7544C161.738 40.5746 160.779 39.6183 159.595 39.6183C158.412 39.6183 157.453 40.5746 157.453 41.7544C157.453 42.9341 158.412 43.8905 159.595 43.8905Z" fill="#3A56F3"/>
</g>
<defs>
<clipPath id="clip0">
<rect width="253.687" height="111.33" fill="white" transform="translate(0.770508)"/>
</clipPath>
</defs>
</svg>
