<svg width="316" height="76" viewBox="0 0 316 76" fill="none" xmlns="http://www.w3.org/2000/svg">
<path fill-rule="evenodd" clip-rule="evenodd" d="M43.855 31.9275C43.855 44.0377 34.0377 53.855 21.9275 53.855C19.6984 53.855 17.5471 53.5224 15.5203 52.9041C13.7777 59.8536 7.48986 65 0 65V33C0 32.8347 0.00250607 32.67 0.00748227 32.506C0.00250431 32.3137 0 32.1209 0 31.9275C0 19.8173 9.81727 10 21.9275 10C34.0377 10 43.855 19.8173 43.855 31.9275ZM22.1374 43.2748C27.7361 43.2748 32.2748 38.7361 32.2748 33.1374C32.2748 27.5387 27.7361 23 22.1374 23C16.5387 23 12 27.5387 12 33.1374C12 38.7361 16.5387 43.2748 22.1374 43.2748Z" fill="#3A56F3"/>
<path fill-rule="evenodd" clip-rule="evenodd" d="M33 31.9275C33 44.0377 42.8173 53.855 54.9275 53.855C57.206 53.855 59.4033 53.5074 61.4693 52.8625C63.1972 59.8331 69.4952 65 77 65V33C77 32.1625 76.9356 31.3399 76.8116 30.5371C76.0944 19.0747 66.5707 10 54.9275 10C42.8173 10 33 19.8173 33 31.9275ZM54.7176 43.2748C49.1188 43.2748 44.5802 38.7361 44.5802 33.1374C44.5802 27.5387 49.1188 23 54.7176 23C60.3163 23 64.855 27.5387 64.855 33.1374C64.855 38.7361 60.3163 43.2748 54.7176 43.2748Z" fill="#3A56F3"/>
<path d="M97.5909 61H106.023V43.9545H114.614L123.75 61H133.159L123.091 42.5455C128.568 40.3409 131.455 35.6591 131.455 29.3409C131.455 20.4545 125.727 14.4545 115.045 14.4545H97.5909V61ZM106.023 36.9545V21.5H113.75C120.045 21.5 122.864 24.3864 122.864 29.3409C122.864 34.2955 120.045 36.9545 113.795 36.9545H106.023ZM153.807 61.6818C161.943 61.6818 167.534 57.7045 168.989 51.6364L161.307 50.7727C160.193 53.7273 157.466 55.2727 153.92 55.2727C148.602 55.2727 145.08 51.7727 145.011 45.7955H169.33V43.2727C169.33 31.0227 161.966 25.6364 153.375 25.6364C143.375 25.6364 136.852 32.9773 136.852 43.75C136.852 54.7045 143.284 61.6818 153.807 61.6818ZM145.034 40.25C145.284 35.7955 148.58 32.0455 153.489 32.0455C158.216 32.0455 161.398 35.5 161.443 40.25H145.034ZM184.517 40.5455C184.517 35.5 187.562 32.5909 191.903 32.5909C196.153 32.5909 198.699 35.3864 198.699 40.0455V61H206.926V38.7727C206.949 30.4091 202.176 25.6364 194.972 25.6364C189.744 25.6364 186.153 28.1364 184.562 32.0227H184.153V26.0909H176.29V61H184.517V40.5455ZM232.722 26.0909H225.835V17.7273H217.608V26.0909H212.653V32.4545H217.608V51.8636C217.562 58.4318 222.335 61.6591 228.517 61.4773C230.858 61.4091 232.472 60.9545 233.358 60.6591L231.972 54.2273C231.517 54.3409 230.585 54.5455 229.562 54.5455C227.494 54.5455 225.835 53.8182 225.835 50.5V32.4545H232.722V26.0909ZM245.943 61L249.784 49.5227H267.284L271.148 61H280.148L263.739 14.4545H253.33L236.943 61H245.943ZM252.057 42.75L258.352 24H258.716L265.011 42.75H252.057ZM294.142 14.4545H285.915V61H294.142V14.4545ZM310.83 14.4545H302.602V61H310.83V14.4545Z" fill="#232A4D"/>
</svg>
